<svg class="icon" viewBox="0 0 1024 1024" xmlns="http://www.w3.org/2000/svg" width="310" height="310"><defs><style/></defs><path d="M958.464 151.552h28.672c16.384 0 28.672 40.96 28.672 90.112v540.672c0 49.152-12.288 90.112-28.672 90.112h-28.672V151.552zM65.536 872.448H36.864c-16.384 0-28.672-40.96-28.672-90.112V241.664c0-49.152 12.288-90.112 28.672-90.112h28.672v720.896zm798.72-839.68H163.84c-32.768 0-57.344 32.768-57.344 69.632v823.296c0 36.864 24.576 69.632 57.344 69.632h700.416c32.768 0 57.344-28.672 57.344-69.632V102.4c4.096-40.96-24.576-69.632-57.344-69.632zM348.16 200.704c57.344 0 102.4 45.056 102.4 102.4S405.504 409.6 348.16 409.6s-102.4-49.152-102.4-102.4c0-57.344 45.056-106.496 102.4-106.496zM155.648 913.408S204.8 610.304 303.104 610.304c98.304 0 86.016 86.016 159.744 86.016s102.4-258.048 200.704-258.048 208.896 479.232 208.896 479.232h-716.8z"/></svg>