<?xml version="1.0" standalone="no"?><!DOCTYPE svg PUBLIC "-//W3C//DTD SVG 1.1//EN" "http://www.w3.org/Graphics/SVG/1.1/DTD/svg11.dtd"><svg t="1555897611915" class="icon" style="" viewBox="0 0 1024 1024" version="1.1" xmlns="http://www.w3.org/2000/svg" p-id="2016" xmlns:xlink="http://www.w3.org/1999/xlink" width="310" height="310"><defs><style type="text/css"></style></defs><path d="M958.464 151.552h28.672c16.384 0 28.672 40.96 28.672 90.112v540.672c0 49.152-12.288 90.112-28.672 90.112h-28.672V151.552zM65.536 872.448H36.864c-16.384 0-28.672-40.96-28.672-90.112V241.664c0-49.152 12.288-90.112 28.672-90.112h28.672v720.896zM864.256 32.768H163.84c-32.768 0-57.344 32.768-57.344 69.632v823.296c0 36.864 24.576 69.632 57.344 69.632h700.416c32.768 0 57.344-28.672 57.344-69.632V102.4c4.096-40.96-24.576-69.632-57.344-69.632zM348.16 200.704C405.504 200.704 450.56 245.76 450.56 303.104S405.504 409.6 348.16 409.6 245.76 360.448 245.76 307.2c0-57.344 45.056-106.496 102.4-106.496zM155.648 913.408s49.152-303.104 147.456-303.104c98.304 0 86.016 86.016 159.744 86.016 73.728 0 102.4-258.048 200.704-258.048 98.304 0 208.896 479.232 208.896 479.232H155.648z" p-id="2017"></path></svg>