<svg width="15" height="15" xmlns="http://www.w3.org/2000/svg"><g><path d="M11.002 15.004H1.973A1.976 1.976 0 0 1 0 13.03V4C0 2.915.886 2.03 1.973 2.03h9.03c1.086 0 1.972.885 1.972 1.973v9.029a1.976 1.976 0 0 1-1.973 1.973zM1.973 3.158a.844.844 0 0 0-.844.844v9.029c0 .465.379.843.844.843h9.03a.844.844 0 0 0 .843-.843V4a.844.844 0 0 0-.844-.843H1.973z"/><path d="M13.027 12.976h-.617a.564.564 0 1 1 0-1.13h.617a.845.845 0 0 0 .844-.844V1.974a.845.845 0 0 0-.844-.845h-9.03a.845.845 0 0 0-.843.845v.62a.564.564 0 1 1-1.13 0v-.62C2.025.885 2.912 0 3.999 0h9.029C14.114 0 15 .886 15 1.974v9.028a1.976 1.976 0 0 1-1.973 1.974z"/><path d="M9.394 7.36H3.582a.564.564 0 1 1 0-1.13h5.812a.564.564 0 1 1 0 1.13zm-3.213 3.442H3.582a.564.564 0 1 1 0-1.13h2.6a.564.564 0 1 1 0 1.13z"/></g></svg>