<svg width="15" height="15" xmlns="http://www.w3.org/2000/svg"><g><path d="M14.444 13.333h-2.5V7.778c0-2.445-2-4.445-4.444-4.445s-4.444 2-4.444 4.445v5.555h-2.5A.557.557 0 0 0 0 13.89c0 .305.25.555.556.555h13.888c.306 0 .556-.25.556-.555a.557.557 0 0 0-.556-.556zm-10.277 0V7.778c0-1.834 1.5-3.334 3.333-3.334 1.833 0 3.333 1.5 3.333 3.334v5.555H4.167z"/><path d="M5.833 7.778a.557.557 0 0 0-.555.555v3.334c0 .305.25.555.555.555.306 0 .556-.25.556-.555V8.333a.557.557 0 0 0-.556-.555zM7.5 2.222c.306 0 .556-.25.556-.555V.556A.557.557 0 0 0 7.5 0a.557.557 0 0 0-.556.556v1.11c0 .306.25.556.556.556zm4.222 1.14l.778-.779a.537.537 0 0 0 0-.777.537.537 0 0 0-.778 0l-.778.777a.537.537 0 0 0 0 .778c.223.222.584.222.778 0zm-8.333 0a.537.537 0 0 0 .778 0 .537.537 0 0 0 0-.779l-.778-.777a.537.537 0 0 0-.778 0 .537.537 0 0 0 0 .777l.778.778zM.556 6.943h1.11c.306 0 .556-.25.556-.555a.557.557 0 0 0-.555-.556H.556A.557.557 0 0 0 0 6.39c0 .305.25.555.556.555zm12.777 0h1.111c.306 0 .556-.25.556-.555a.557.557 0 0 0-.556-.556h-1.11a.557.557 0 0 0-.556.556c0 .305.25.555.555.555z"/></g></svg>