<svg width="15" height="17" xmlns="http://www.w3.org/2000/svg"><g><path d="M11.783 4.268h-.702a.592.592 0 1 1 0-1.184h.702a.592.592 0 1 1 0 1.184zm-4.528 0H3.217a.592.592 0 1 1 0-1.184h4.038a.592.592 0 1 1 0 1.184zm1.754 9.05a.59.59 0 0 1-.392-1.035l.78-.69H4.09a.592.592 0 1 1 0-1.184h6.868a.592.592 0 0 1 .392 1.035L9.4 13.17a.584.584 0 0 1-.391.149zm1.949-4.102H4.09a.594.594 0 0 1-.393-1.034l1.95-1.727a.592.592 0 0 1 .786.885l-.782.693h5.307a.592.592 0 1 1 0 1.183z"/><path d="M12.93 16.112H2.07c-1.142 0-2.07-.928-2.07-2.07V2.07C0 .93.928 0 2.07 0h10.86C14.073 0 15 .928 15 2.07v11.973c0 1.14-.928 2.069-2.07 2.069zM2.07 1.184a.887.887 0 0 0-.886.885v11.974c0 .488.397.885.885.885h10.862a.887.887 0 0 0 .885-.885V2.069a.887.887 0 0 0-.885-.885H2.069z"/></g></svg>