<svg class="icon" viewBox="0 0 1024 1024" xmlns="http://www.w3.org/2000/svg" width="310" height="310"><defs><style/></defs><path d="M536.399 268.677a112.966 112.966 0 0 0 111.257-114.673 115.894 115.894 0 0 0-40.501-88.567 79.784 79.784 0 0 1 3.66 22.69 76.124 76.124 0 1 1-152.004 0 79.296 79.296 0 0 1 2.196-18.299 115.894 115.894 0 0 0-35.866 84.176 112.966 112.966 0 0 0 111.258 114.673zm-3.416-146.392a75.392 75.392 0 0 0 73.196-76.367 73.196 73.196 0 1 0-148.344 0 75.392 75.392 0 0 0 73.196 76.367zM9.144 807.643l179.086 71.488c-14.395-29.766-73.196-479.677-73.196-479.677zm728.3 235.447l11.467-175.67-401.602 41.721zM859.436 74.952l-195.19 29.522a153.223 153.223 0 0 1 18.543 73.196 146.392 146.392 0 1 1-292.783 0 156.395 156.395 0 0 1 3.416-32.206l-239.839 36.842c8.784 232.275 112.722 694.141 112.722 694.141l748.55-131.02C962.886 691.75 858.705 75.196 858.705 75.196zm-563.853 365.98l318.402-47.09 9.516 35.378-318.89 48.066zM363.9 709.317l-11.467-40.502 391.354-56.117 12.2 40.014zm-24.398-116.382l-15.371-37.818 505.051-69.536 15.371 40.014zm0 0"/></svg>