<svg class="icon" viewBox="0 0 1024 1024" xmlns="http://www.w3.org/2000/svg" width="200" height="200"><defs><style/></defs><path d="M833.634 551.096H481.955c-16.207 0-29.36-13.02-29.36-29.322 0-16.19 13.058-29.322 29.36-29.322h359.372l-74.719-74.72c-11.435-11.415-11.473-29.895.058-41.424 11.453-11.454 30.124-11.34 41.407-.04L917.402 485.58c5.555 1.07 10.882 3.704 15.196 8.019 6.68 6.681 9.468 15.691 8.4 24.32 1.068 8.63-1.72 17.64-8.4 24.322a28.892 28.892 0 0 1-15.196 8.018l-109.33 109.31c-11.281 11.3-29.953 11.414-41.406-.04-11.531-11.53-11.492-30.01-.058-41.423l67.026-67.009zm-87.7-312.772V140.62c0-43.258-35.03-78.231-78.231-78.231h-508.37c-43.181 0-78.23 35.011-78.23 78.23v742.76c0 43.256 35.011 78.231 78.23 78.231h508.37c43.181 0 78.23-35.05 78.23-78.23v-97.705c0-16.189-13.134-29.322-29.34-29.322-16.209 0-29.342 13.133-29.342 29.322v78.23c0 21.572-17.601 39.06-38.926 39.06H178.69c-21.495 0-38.944-17.45-38.944-39.06V160.054c0-21.533 17.601-39.02 38.944-39.02h469.635c21.515 0 38.926 17.411 38.926 39.02v78.27c0 16.188 13.133 29.322 29.341 29.322 16.207 0 29.341-13.133 29.341-29.321z"/></svg>