<svg width="16" height="17" xmlns="http://www.w3.org/2000/svg"><g><path d="M4.39 16.158H2.983A1.985 1.985 0 0 1 1 14.175V3.983C1 2.89 1.89 2 2.983 2h9.38c1.093 0 1.982.89 1.982 1.983v1.183a.564.564 0 1 1-1.128 0V3.983a.856.856 0 0 0-.855-.855h-9.38a.856.856 0 0 0-.854.855v10.192c0 .471.384.855.855.855H4.39a.564.564 0 1 1 0 1.128z"/><path d="M12.864 16.987H9.141a3.139 3.139 0 0 1-3.135-3.136V10.13a3.14 3.14 0 0 1 3.135-3.136h3.724A3.139 3.139 0 0 1 16 10.129v3.722a3.14 3.14 0 0 1-3.136 3.136zM9.141 8.121a2.01 2.01 0 0 0-2.007 2.008v3.722c0 1.107.9 2.008 2.007 2.008h3.724a2.01 2.01 0 0 0 2.007-2.008V10.13a2.01 2.01 0 0 0-2.007-2.008H9.14zm2.34-2.363H3.864a.564.564 0 1 1 0-1.128h7.615a.564.564 0 1 1 0 1.128zM4.914 8.345h-1.05a.564.564 0 1 1 0-1.129h1.05a.564.564 0 1 1 0 1.129z"/><path d="M10.688 14.098a.562.562 0 0 1-.399-.165L8.677 12.32a.564.564 0 1 1 .798-.798l1.213 1.213 2.099-2.098a.564.564 0 1 1 .798.797l-2.498 2.498a.562.562 0 0 1-.399.165z"/></g></svg>