<svg width="15" height="15" xmlns="http://www.w3.org/2000/svg"><path d="M11.183 0c.832 0 1.507.675 1.507 1.507V3.95h1.138c.64 0 1.161.514 1.172 1.152V13.493c0 .824-.661 1.493-1.482 1.507H1.507A1.507 1.507 0 0 1 0 13.518V5.123C0 4.482.514 3.96 1.152 3.95H2.31V1.507C2.31.683 2.971.014 3.792 0h7.391zm2.813 11.05H1.004v2.443c0 .275.22.498.494.502H13.493c.275 0 .498-.22.503-.493v-2.453zM2.504 4.954H1.197c-.105 0-.19.073-.192.163v4.927h1.5v-5.09zm11.493 0H12.69v5.09h1.5V5.123c0-.091-.083-.165-.187-.168h-.006zm-2.806-3.95H3.817a.502.502 0 0 0-.502.502v8.538h8.37V1.507a.502.502 0 0 0-.494-.503zM9.504 2.23a.502.502 0 0 1 0 .71l-1.01 1.01h1.182a.502.502 0 1 1 0 1.004H8.002V5.96h1.674a.502.502 0 1 1 0 1.004H8.002v1.842a.502.502 0 1 1-1.004 0V6.964H5.324a.502.502 0 1 1 0-1.004h1.674V4.955H5.324a.502.502 0 1 1 0-1.004h1.181l-1.01-1.01a.502.502 0 0 1-.005-.704l.006-.006a.502.502 0 0 1 .71 0L7.5 3.525l1.294-1.294a.502.502 0 0 1 .71 0z"/></svg>