<svg width="14" height="17" xmlns="http://www.w3.org/2000/svg"><g><path d="M7 9.45V2.8C7 1.26 5.74 0 4.2 0 2.66 0 1.4 1.26 1.4 2.8v6.65C.49 10.22 0 11.34 0 12.6c0 2.31 1.89 4.2 4.2 4.2 2.31 0 4.2-1.89 4.2-4.2 0-1.19-.49-2.31-1.4-3.15zM4.2 15.4c-1.54 0-2.8-1.26-2.8-2.8 0-.91.42-1.68 1.12-2.24.21-.14.28-.35.28-.56v-7c0-.77.63-1.4 1.4-1.4.77 0 1.4.63 1.4 1.4v7c0 .21.07.42.28.56.7.56 1.12 1.33 1.12 2.24 0 1.54-1.26 2.8-2.8 2.8z"/><path d="M4.76 10.78V5.25c0-.28-.21-.56-.56-.56-.35 0-.56.28-.56.56v5.53c-.84.21-1.4.98-1.4 1.82 0 1.05.84 1.96 1.96 1.96s1.96-.84 1.96-1.96c0-.91-.63-1.61-1.4-1.82zm-.56 2.66c-.49 0-.84-.42-.84-.84s.42-.84.84-.84.84.42.84.84-.35.84-.84.84zm9.1-11.76H9.1c-.42 0-.7.28-.7.7 0 .42.28.7.7.7h4.2c.42 0 .7-.28.7-.7 0-.42-.28-.7-.7-.7zm-1.4 2.8H9.1c-.42 0-.7.28-.7.7 0 .42.28.7.7.7h2.8c.42 0 .7-.28.7-.7 0-.42-.28-.7-.7-.7zm-1.4 2.8H9.1c-.42 0-.7.28-.7.7 0 .42.28.7.7.7h1.4c.42 0 .7-.28.7-.7 0-.42-.28-.7-.7-.7z"/></g></svg>