<svg class="icon" viewBox="0 0 1024 1024" xmlns="http://www.w3.org/2000/svg" width="200" height="200"><defs><style/></defs><path d="M864.2 128.7l.1.1v767.5l-.1.1H162.4l-.1-.1V128.8l.1-.1h701.8m.1-64h-702c-35.2 0-64 28.8-64 64v767.7c0 35.2 28.8 64 64 64h702c35.2 0 64-28.8 64-64V128.7c0-35.2-28.8-64-64-64z"/><path d="M703.6 289.1H320.3c-17.7 0-32-14.3-32-32s14.3-32 32-32h383.3c17.7 0 32 14.3 32 32s-14.4 32-32 32zm0 127.9H320.3c-17.7 0-32-14.3-32-32s14.3-32 32-32h383.3c17.7 0 32 14.3 32 32s-14.4 32-32 32zm0 128.3H320.3c-17.7 0-32-14.3-32-32s14.3-32 32-32h383.3c17.7 0 32 14.3 32 32s-14.4 32-32 32zm0 127.9H320.3c-17.7 0-32-14.3-32-32s14.3-32 32-32h383.3c17.7 0 32 14.3 32 32s-14.4 32-32 32zm0 126.8H320.3c-17.7 0-32-14.3-32-32s14.3-32 32-32h383.3c17.7 0 32 14.3 32 32s-14.4 32-32 32z"/></svg>