<svg width="15" height="14" xmlns="http://www.w3.org/2000/svg"><g><path d="M11.714 13.857H3.321a.564.564 0 0 1-.571-.571c0-.322.25-.572.571-.572h8.393c.322 0 .572.25.572.572a.587.587 0 0 1-.572.571zm-7.678-2.286A.564.564 0 0 1 3.464 11V8.571c0-.321.25-.571.572-.571.321 0 .571.25.571.571V11c0 .321-.25.571-.571.571zm3.464 0A.564.564 0 0 1 6.929 11V3.464c0-.321.25-.571.571-.571.321 0 .571.25.571.571v7.572c0 .285-.25.535-.571.535zm3.464 0a.564.564 0 0 1-.571-.571V6.571c0-.321.25-.571.571-.571.322 0 .572.25.572.571V11c0 .321-.25.571-.572.571z"/><path d="M13 11.714H2c-1.107 0-2-.893-2-2V2C0 .893.893 0 2 0h11c1.107 0 2 .893 2 2v7.714c0 1.107-.893 2-2 2zM2 1.18a.87.87 0 0 0-.857.857V9.75a.87.87 0 0 0 .857.857h11a.87.87 0 0 0 .857-.857V2A.87.87 0 0 0 13 1.143H2v.036z"/></g></svg>