<svg width="16" height="16" xmlns="http://www.w3.org/2000/svg"><g><path d="M10.77 3.336a.56.56 0 0 1-.559-.56V.56a.56.56 0 1 1 1.12 0v2.216c0 .31-.25.56-.56.56zm-6.256 0a.56.56 0 0 1-.56-.56V.56a.56.56 0 1 1 1.12 0v2.216c0 .31-.25.56-.56.56zm9.166 2.426H1.56a.56.56 0 1 1 0-1.12h12.12a.56.56 0 1 1 0 1.12zM6.828 8.619H4.514a.56.56 0 1 1 0-1.12h2.314a.56.56 0 1 1 0 1.12zm6.132 3.92a.56.56 0 0 1-.37-.14l-.908-.803a.56.56 0 0 1 .742-.839l.908.803a.56.56 0 0 1-.372.98z"/><path d="M12.053 11.736a.56.56 0 0 1-.56-.56V9.507a.56.56 0 1 1 1.12 0v1.67c0 .309-.25.56-.56.56z"/><path d="M12.053 14.963a3.952 3.952 0 0 1-3.947-3.948 3.951 3.951 0 0 1 3.947-3.947A3.951 3.951 0 0 1 16 11.015a3.952 3.952 0 0 1-3.947 3.948zm0-6.775a2.831 2.831 0 0 0-2.827 2.827 2.831 2.831 0 0 0 2.827 2.828 2.831 2.831 0 0 0 2.828-2.828 2.831 2.831 0 0 0-2.828-2.827z"/><path d="M6.44 14.124H2.968A1.97 1.97 0 0 1 1 12.157V3.075a1.97 1.97 0 0 1 1.967-1.967h9.306a1.97 1.97 0 0 1 1.967 1.967v2.796a.56.56 0 1 1-1.12 0V3.075a.849.849 0 0 0-.847-.848H2.967a.849.849 0 0 0-.848.848v9.082c0 .467.38.847.848.847h3.474a.56.56 0 1 1 0 1.12z"/></g></svg>