<svg width="14" height="16" xmlns="http://www.w3.org/2000/svg"><path d="M7 1.212L1.124 4.606v6.788L7 14.788l5.876-3.394V4.606L7 1.212zM7.281.075l6.438 3.72c.174.1.281.285.281.486v7.438c0 .2-.107.386-.281.487L7.28 15.925c-.174.1-.388.1-.562 0L.28 12.205A.563.563 0 0 1 0 11.72V4.28c0-.2.107-.386.281-.487L6.72.075c.174-.1.388-.1.562 0zM5.376 8.5a.562.562 0 0 1-.513-.793l1.624-3.625a.562.562 0 1 1 1.026.46L6.244 7.376h2.38c.405 0 .677.415.516.786l-1.624 3.75a.562.562 0 1 1-1.032-.447L7.768 8.5H5.376z"/></svg>