<svg width="16" height="17" xmlns="http://www.w3.org/2000/svg"><g><path d="M13.916 16.25H3.083A2.086 2.086 0 0 1 1 14.168V2.084C1 .935 1.934 0 3.083 0h7.292A5.631 5.631 0 0 1 16 5.625v8.542a2.087 2.087 0 0 1-2.084 2.084zm-10.833-15a.834.834 0 0 0-.833.834v12.083c0 .46.374.834.833.834h10.833c.46 0 .834-.374.834-.834V5.625a4.38 4.38 0 0 0-4.375-4.375H3.083z"/><path d="M7.25 13.125h-2.5a.625.625 0 1 1 0-1.25h2.5a.625.625 0 1 1 0 1.25zm5-3.75h-7.5a.624.624 0 1 1 0-1.25h7.5a.625.625 0 1 1 0 1.25z"/></g></svg>