<?xml version="1.0" standalone="no"?><!DOCTYPE svg PUBLIC "-//W3C//DTD SVG 1.1//EN" "http://www.w3.org/Graphics/SVG/1.1/DTD/svg11.dtd"><svg t="1554956250870" class="icon" style="" viewBox="0 0 1024 1024" version="1.1" xmlns="http://www.w3.org/2000/svg" p-id="19242" xmlns:xlink="http://www.w3.org/1999/xlink" width="310" height="310"><defs><style type="text/css"></style></defs><path d="M881.311 31.895C872.918 13.43 854.452 0 834.308 0H188.013c-20.144 0-40.288 13.43-47.003 31.895C102.4 125.902 0 387.777 0 409.6c0 50.36 35.252 92.328 83.934 100.721s97.364-18.465 114.151-65.469v-5.036c3.358-10.072 6.715-8.393 8.394 0v3.358C221.587 483.462 260.197 512 302.164 512s82.256-26.859 95.685-68.826v-3.358c3.358-10.072 6.715-10.072 8.394 0v3.358C421.35 483.462 459.96 512 501.928 512s82.256-26.859 95.685-68.826v-3.358c3.357-10.072 6.715-10.072 8.394 0v3.358C621.115 483.462 659.725 512 701.692 512s82.256-26.859 95.685-68.826v-3.358c3.357-10.072 6.715-8.393 8.393 0v3.358c10.073 57.075 63.79 97.364 120.866 87.292 57.075-10.073 97.364-63.79 87.292-122.545 8.393-20.144-94.007-282.02-132.617-376.026zM867.882 564.04c-13.43 0-26.859 5.036-36.931 15.109-10.072 10.072-15.108 21.822-15.108 36.93V871.24c0 28.538-23.502 50.361-50.361 50.361H255.161c-28.538 0-50.361-23.502-50.361-50.36V614.4c0-28.538-23.502-50.36-50.36-50.36s-50.361 23.501-50.361 50.36v255.16c0 85.614 68.826 152.761 152.76 152.761h510.322c83.934 0 152.76-68.826 152.76-152.76V614.4c0-13.43-5.036-26.859-15.108-36.931-10.072-8.394-21.823-13.43-36.931-13.43z" p-id="19243" fill="#BFCBD9"></path><path d="M352.525 956.852v-8.393c0-73.862 55.396-135.974 127.58-149.403-41.967-13.43-72.184-50.36-72.184-95.686 0-53.718 47.004-99.042 104.079-99.042s104.079 45.324 104.079 99.042c0 43.646-30.217 82.256-72.184 95.686 72.184 13.43 127.58 75.54 127.58 149.403v8.393h-318.95z" p-id="19244" fill="#BFCBD9"></path></svg>