<svg class="icon" viewBox="0 0 1024 1024" xmlns="http://www.w3.org/2000/svg" width="128" height="128"><defs><style/></defs><path d="M523.488 204.863c.975-1.184 1.972-2.398 2.99-3.641-7.598 9.269 26.624-32.672 35.097-42.803C625.985 81.398 677.328 38.584 744.324 19.47c119.57-42.514 230.645-12.804 259.74 63.883 35.204 57.164 1.086 138.8-78.55 184.375h64.35c18.852 0 34.134 15.131 34.134 33.794V504.29c0 18.664-15.282 33.792-34.134 33.792h-33.458v384.534c0 55.992-45.847 101.384-102.4 101.384H171.341c-56.553 0-102.4-45.392-102.4-101.384V538.084H34.135C15.282 538.084 0 522.954 0 504.29V301.522c0-18.663 15.282-33.794 34.134-33.794h87.326C41.82 222.152 7.705 140.515 42.908 83.353 72.003 6.666 183.078-23.044 302.65 19.47 369.645 38.584 420.99 81.398 485.4 158.417c8.472 10.133 42.692 52.074 35.094 42.803l2.992 3.645zM68.94 484.015v-.725h887.464v.725h12.978V321.802H54.614v162.213h14.328zm832.852 54.071H123.554v384.532c0 26.13 21.393 47.313 47.785 47.313h682.665c26.393 0 47.788-21.183 47.788-47.313V538.086zM255.946 245.225c38.84 2.48 77.25 4.076 113.04 4.37 48.574.402 88.739-1.83 115.72-6.266a2169.08 2169.08 0 0 1-6.722-8.164c7.727 9.43-26.389-32.385-34.65-42.264-57.938-69.28-102.185-106.174-157.462-122.003-97.346-34.564-176.734-12.585-192.428 33.105l-3.084 6.22c-24.195 36.184 16.883 108.384 110.13 131.017 13.091.905 39.218 2.949 55.456 3.985zm535.08 0c16.24-1.038 42.365-3.08 55.456-3.985 93.247-22.63 134.328-94.833 110.13-131.017l-3.084-6.22c-15.691-45.69-95.082-67.67-192.425-33.105-55.28 15.829-99.527 52.723-157.464 122.003-8.26 9.88-42.376 51.691-34.648 42.264a2060.861 2060.861 0 0 1-6.722 8.164c26.978 4.436 67.146 6.668 115.72 6.266 35.787-.294 74.199-1.89 113.04-4.37z"/></svg>