<svg width="15" height="16" xmlns="http://www.w3.org/2000/svg"><g><path d="M3.059 10.428H1.97A1.973 1.973 0 0 1 0 8.456V1.971C0 .884.885 0 1.971 0h9.344c1.087 0 1.972.884 1.972 1.971v1.273a.563.563 0 1 1-1.126 0V1.97a.847.847 0 0 0-.846-.845H1.971a.847.847 0 0 0-.845.845v6.485c0 .467.38.846.845.846H3.06a.563.563 0 1 1 0 1.126zm0 2.71h-.727a.563.563 0 1 1 0-1.127h.727a.563.563 0 1 1 0 1.126z"/><path d="M13.047 15.04h-6.07a1.955 1.955 0 0 1-1.954-1.953V7.015c0-1.076.876-1.953 1.953-1.953h6.071c1.077 0 1.953.877 1.953 1.953v6.072a1.955 1.955 0 0 1-1.953 1.952zm-6.07-8.852a.828.828 0 0 0-.828.827v6.072c0 .456.371.827.827.827h6.071c.456 0 .827-.371.827-.827V7.015a.828.828 0 0 0-.827-.827h-6.07z"/><path d="M12.21 9.305H7.978a.563.563 0 1 1 0-1.125h4.232a.563.563 0 1 1 0 1.125zm-2.116 2.618H7.978a.563.563 0 1 1 0-1.125h2.116a.563.563 0 1 1 0 1.125z"/></g></svg>