<svg width="15" height="15" xmlns="http://www.w3.org/2000/svg"><g><path d="M7.5 4.004c-1.686 0-3.058 1.357-3.058 3.024s1.372 3.024 3.058 3.024c.164 0 .338-.017.547-.054a.57.57 0 0 0 .464-.661.573.573 0 0 0-.669-.458 1.961 1.961 0 0 1-.34.036 1.9 1.9 0 0 1-1.909-1.887c0-1.04.855-1.887 1.906-1.887s1.906.847 1.906 1.887c0 .101-.011.208-.036.336a.57.57 0 0 0 .569.671.57.57 0 0 0 .564-.466c.037-.198.054-.37.054-.541.001-.806-.317-1.565-.895-2.137a3.054 3.054 0 0 0-2.16-.887z"/><path d="M14.865 5.639a.508.508 0 0 0-.388-.398 2.6 2.6 0 0 1-1.69-1.231 2.553 2.553 0 0 1-.235-2.06c.06-.19 0-.4-.154-.53A7.497 7.497 0 0 0 9.96.03a.514.514 0 0 0-.542.133A2.61 2.61 0 0 1 7.5.99 2.613 2.613 0 0 1 5.58.16a.524.524 0 0 0-.543-.133A7.494 7.494 0 0 0 2.6 1.42a.502.502 0 0 0-.154.528c.217.7.134 1.431-.233 2.06A2.595 2.595 0 0 1 .523 5.24a.511.511 0 0 0-.387.398C.046 6.106 0 6.573 0 7.028c0 .454.046.922.135 1.39.038.196.19.352.388.397a2.6 2.6 0 0 1 1.69 1.23c.367.63.45 1.362.233 2.062a.507.507 0 0 0 .155.529 7.507 7.507 0 0 0 2.437 1.392c.197.066.408.009.54-.133a2.613 2.613 0 0 1 1.92-.829c.735 0 1.416.295 1.92.829a.514.514 0 0 0 .544.134 7.508 7.508 0 0 0 2.436-1.392.505.505 0 0 0 .154-.53 2.543 2.543 0 0 1 .235-2.06 2.593 2.593 0 0 1 1.69-1.23.512.512 0 0 0 .388-.398c.09-.468.135-.935.135-1.39 0-.455-.046-.923-.135-1.39zm-3.611 6.142a6.073 6.073 0 0 1-1.471.84 3.47 3.47 0 0 0-4.568 0 6.076 6.076 0 0 1-1.471-.84c.17-.815.032-1.659-.392-2.384a3.431 3.431 0 0 0-1.895-1.528 5.847 5.847 0 0 1 0-1.682A3.432 3.432 0 0 0 3.352 4.66c.422-.723.56-1.566.392-2.385a6.078 6.078 0 0 1 1.47-.84 3.46 3.46 0 0 0 2.285.858c.846 0 1.653-.303 2.284-.856a6.077 6.077 0 0 1 1.47.84 3.366 3.366 0 0 0 .39 2.384A3.431 3.431 0 0 0 13.54 6.19a5.866 5.866 0 0 1 .001 1.68 3.431 3.431 0 0 0-1.895 1.528 3.375 3.375 0 0 0-.391 2.384z"/></g></svg>