<svg width="15" height="15" xmlns="http://www.w3.org/2000/svg"><g><path d="M13.076 15H1.923A1.925 1.925 0 0 1 0 13.076V1.922C0 .862.863 0 1.923 0h11.153C14.136 0 15 .862 15 1.922v11.154c0 1.06-.863 1.924-1.924 1.924zM1.923 1.154a.77.77 0 0 0-.77.768v11.154c0 .425.346.77.77.77h11.153a.77.77 0 0 0 .77-.77V1.922a.77.77 0 0 0-.77-.768H1.923z"/><path d="M2.884 10.385a.575.575 0 0 1-.417-.179.584.584 0 0 1 .018-.814l3.388-3.388a.67.67 0 0 1 .947 0L8.535 7.72a.167.167 0 0 0 .237 0L11.7 4.792a.584.584 0 0 1 .814-.016.577.577 0 0 1 .01.824L9.126 8.996a.67.67 0 0 1-.947 0L6.464 7.28a.167.167 0 0 0-.236 0l-2.936 2.936a.575.575 0 0 1-.408.169z"/></g></svg>