<svg class="icon" viewBox="0 0 1024 1024" xmlns="http://www.w3.org/2000/svg" width="200" height="200"><defs><style/></defs><path d="M512 1024a512 512 0 1 1 512-512 512 512 0 0 1-512 512zm0-965.486A453.486 453.486 0 1 0 965.486 512 453.486 453.486 0 0 0 512 58.514z"/><path d="M424.229 737.28a73.143 73.143 0 0 1-36.572-9.947 72.119 72.119 0 0 1-36.571-63.342V360.009A73.143 73.143 0 0 1 460.8 296.667l263.314 151.991a73.143 73.143 0 0 1 0 126.684L460.8 727.332a73.143 73.143 0 0 1-36.571 9.948zm0-392.046a14.629 14.629 0 0 0-7.315 2.048 14.629 14.629 0 0 0-7.314 12.727v303.982a14.629 14.629 0 0 0 7.314 12.727 14.629 14.629 0 0 0 14.629 0l263.314-151.991a14.629 14.629 0 0 0 0-25.454l-263.314-151.99a14.629 14.629 0 0 0-7.314-2.049z"/></svg>