<svg class="icon" viewBox="0 0 1097 1024" xmlns="http://www.w3.org/2000/svg" width="137.125" height="128"><defs><style/></defs><path d="M544.138 358.274c83.148 0 150.793 65.743 150.793 146.552 0 80.735-67.645 146.478-150.793 146.478-83.075 0-150.72-65.743-150.72-146.478 0-80.809 67.645-146.552 150.72-146.552zm0-65.086c-120.225 0-217.707 94.703-217.707 211.638 0 116.86 97.482 211.637 217.707 211.637 120.298 0 217.78-94.776 217.78-211.637 0-116.935-97.482-211.638-217.78-211.638zm538.38 340.785a519.586 519.586 0 0 0 0-244.034 33.567 33.567 0 0 0-40.221-24.206 32.543 32.543 0 0 0-25.01 39.124 456.183 456.183 0 0 1 0 214.27c-4.242 17.551 6.947 35.102 24.937 39.198a33.567 33.567 0 0 0 40.294-24.28zm-39.563 25.01c2.121 0 3.876 0 5.485.146 18.502.731 34.151-13.163 34.956-31.153a32.908 32.908 0 0 0-32.03-33.932 196.865 196.865 0 0 0-8.41-.146c-18.503 0-33.567 14.552-33.567 32.542s15.064 32.543 33.566 32.543zM933.48 854.97a123.59 123.59 0 0 1-21.061-69.107c0-70.058 58.504-126.88 130.536-126.88 18.502 0 33.494-14.553 33.494-32.543a33.055 33.055 0 0 0-33.494-32.542c-109.11 0-197.596 85.927-197.596 191.965 0 37.588 11.262 73.788 31.958 104.648a34.078 34.078 0 0 0 46.364 9.507 32.03 32.03 0 0 0 9.8-45.048zm-226.848 167.54a551.178 551.178 0 0 0 222.022-126.295 31.958 31.958 0 0 0 .877-46.071 34.225 34.225 0 0 0-47.388-.878 483.68 483.68 0 0 1-194.671 110.865 32.47 32.47 0 0 0-22.524 40.587 33.64 33.64 0 0 0 41.757 21.792zm-276.21-17.331a130.756 130.756 0 0 1 118.104-72.91 130.902 130.902 0 0 1 118.177 72.91c7.898 16.308 27.79 23.255 44.61 15.576a32.177 32.177 0 0 0 16.088-43.293A198.035 198.035 0 0 0 548.526 867.11a197.962 197.962 0 0 0-178.802 110.352 32.177 32.177 0 0 0 16.088 43.293c16.747 7.679 36.711.732 44.61-15.576zm-260.488-107.5a551.836 551.836 0 0 0 220.485 124.831 33.64 33.64 0 0 0 41.684-21.792 32.47 32.47 0 0 0-22.377-40.587 484.338 484.338 0 0 1-193.501-109.695 34.225 34.225 0 0 0-47.462 1.17 31.958 31.958 0 0 0 1.17 46.072zM56.364 658.982c72.105 0 130.536 56.822 130.536 126.88 0 25.303-7.606 49.509-21.793 70.204a32.03 32.03 0 0 0 9.36 45.121c15.43 9.946 36.273 5.85 46.511-9.068 21.354-31.3 32.908-68.01 32.908-106.257 0-106.038-88.413-191.965-197.45-191.965-18.575 0-33.566 14.552-33.566 32.542s14.991 32.543 33.493 32.543zm-7.314.22c2.194-.147 4.68-.22 7.313-.22 18.575 0 33.567-14.553 33.567-32.543a33.055 33.055 0 0 0-33.567-32.542c-3.803 0-7.459 0-10.97.219a32.908 32.908 0 0 0-31.664 34.37c1.023 17.918 16.82 31.666 35.321 30.715zM14.533 389.865a520.39 520.39 0 0 0 0 244.253c4.242 17.55 22.231 28.374 40.221 24.279a32.543 32.543 0 0 0 25.084-39.124 456.987 456.987 0 0 1 0-214.49 32.543 32.543 0 0 0-25.01-39.197 33.567 33.567 0 0 0-40.222 24.279zm41.83-24.864c-2.632 0-5.119-.073-7.313-.22a33.2 33.2 0 0 0-35.321 30.715 32.908 32.908 0 0 0 31.592 34.37c3.583.147 7.24.22 11.042.22 18.502 0 33.567-14.626 33.567-32.543a33.055 33.055 0 0 0-33.567-32.542zM165.107 167.99c14.187 20.623 21.793 44.829 21.793 70.205 0 69.985-58.431 126.807-130.537 126.807-18.502 0-33.493 14.553-33.493 32.542s14.991 32.543 33.493 32.543c109.11 0 197.597-85.927 197.597-191.965 0-38.247-11.628-74.958-32.982-106.258a34.152 34.152 0 0 0-46.51-9.068 32.03 32.03 0 0 0-9.361 45.194zM390.419 1.474A551.836 551.836 0 0 0 169.934 126.38a31.958 31.958 0 0 0-1.097 46.071 34.225 34.225 0 0 0 47.388 1.024 484.264 484.264 0 0 1 193.5-109.621c17.698-5.12 27.79-23.402 22.451-40.587a33.64 33.64 0 0 0-41.757-21.72zm276.284 17.332a130.829 130.829 0 0 1-118.177 72.91 130.829 130.829 0 0 1-118.105-72.91 33.932 33.932 0 0 0-44.609-15.577 32.177 32.177 0 0 0-16.088 43.293 197.962 197.962 0 0 0 178.802 110.353A198.035 198.035 0 0 0 727.328 46.522 32.177 32.177 0 0 0 711.239 3.23a33.932 33.932 0 0 0-44.609 15.577zm261.95 108.963A551.91 551.91 0 0 0 706.633 1.474a33.64 33.64 0 0 0-41.684 21.793 32.47 32.47 0 0 0 22.378 40.587c73.13 21.427 139.897 59.527 194.817 110.864 13.383 12.432 34.59 12.067 47.461-.95a31.958 31.958 0 0 0-.95-46.072zm114.23 237.233c-72.107 0-130.537-56.822-130.537-126.88 0-24.864 7.386-48.705 21.061-69.108a32.03 32.03 0 0 0-9.8-45.12 34.078 34.078 0 0 0-46.364 9.506 187.504 187.504 0 0 0-31.957 104.722c0 106.038 88.487 191.965 197.596 191.965 18.502 0 33.493-14.553 33.493-32.543a33.055 33.055 0 0 0-33.493-32.542zm5.484-.147l-5.485.147c-18.502 0-33.566 14.553-33.566 32.542s15.064 32.543 33.566 32.543c2.998 0 5.704 0 8.41-.146a32.908 32.908 0 0 0 32.03-33.932 33.128 33.128 0 0 0-34.955-31.154z"/></svg>