<?xml version="1.0" standalone="no"?><!DOCTYPE svg PUBLIC "-//W3C//DTD SVG 1.1//EN" "http://www.w3.org/Graphics/SVG/1.1/DTD/svg11.dtd"><svg t="1554955871757" class="icon" style="" viewBox="0 0 1097 1024" version="1.1" xmlns="http://www.w3.org/2000/svg" p-id="9797" xmlns:xlink="http://www.w3.org/1999/xlink" width="137.125" height="128"><defs><style type="text/css"></style></defs><path d="M544.137928 358.273815c83.148402 0 150.793321 65.743548 150.793321 146.551802 0 80.735124-67.644918 146.478672-150.793321 146.478672-83.075273 0-150.720191-65.743548-150.720192-146.478672 0-80.808254 67.644918-146.551802 150.720192-146.551802z m0-65.085381c-120.225131 0-217.706943 94.702886-217.706943 211.637183 0 116.861167 97.481812 211.637183 217.706943 211.637182 120.29826 0 217.780073-94.776015 217.780072-211.637182 0-116.934297-97.481812-211.637183-217.780072-211.637183z m538.380421 340.78413a519.586103 519.586103 0 0 0 0-244.033614 33.566505 33.566505 0 0 0-40.221303-24.205912 32.54269 32.54269 0 0 0-25.010337 39.124358 456.182704 456.182704 0 0 1 0 214.26985c-4.241519 17.551114 6.947316 35.102228 24.937207 39.197488a33.566505 33.566505 0 0 0 40.294433-24.279041z m-39.563136 25.010337c2.12076 0 3.875871 0 5.484723 0.146259 18.501799 0.731296 34.151543-13.163335 34.955969-31.153227a32.908339 32.908339 0 0 0-32.030783-33.932154 196.864995 196.864995 0 0 0-8.409909-0.146259c-18.501799 0-33.566505 14.552799-33.566506 32.54269s15.064706 32.54269 33.566506 32.542691z m-109.475074 195.987439a123.589094 123.589094 0 0 1-21.061336-69.107511c0-70.058197 58.503713-126.879928 130.53641-126.879928 18.501799 0 33.493376-14.552799 33.493376-32.542691a33.054598 33.054598 0 0 0-33.493376-32.54269c-109.109425 0-197.596292 85.927329-197.596292 191.965309 0 37.588636 11.261965 73.787808 31.957654 104.648517a34.078413 34.078413 0 0 0 46.364192 9.506854 32.030783 32.030783 0 0 0 9.799372-45.04786z m-226.848148 167.540009a551.178109 551.178109 0 0 0 222.021592-126.294891 31.957653 31.957653 0 0 0 0.877556-46.071674 34.224672 34.224672 0 0 0-47.388008-0.877556A483.679449 483.679449 0 0 1 687.472025 960.130765a32.469561 32.469561 0 0 0-22.52393 40.586951 33.639635 33.639635 0 0 0 41.757026 21.792633z m-276.210656-17.331725a130.755799 130.755799 0 0 1 118.104371-72.910252 130.902058 130.902058 0 0 1 118.177501 72.910252c7.898001 16.30791 27.789264 23.255226 44.609081 15.576614a32.177042 32.177042 0 0 0 16.088521-43.292748A198.035069 198.035069 0 0 0 548.525706 867.109861a197.96194 197.96194 0 0 0-178.801974 110.352629 32.177042 32.177042 0 0 0 16.088522 43.292748c16.746688 7.678612 36.71108 0.731296 44.609081-15.576614z m-260.487783-107.500573a551.836275 551.836275 0 0 0 220.485869 124.832298 33.639635 33.639635 0 0 0 41.683896-21.792633 32.469561 32.469561 0 0 0-22.377671-40.586951 484.337616 484.337616 0 0 1-193.501031-109.694462 34.224672 34.224672 0 0 0-47.461138 1.170074 31.957653 31.957653 0 0 0 1.170075 46.071674zM56.363218 658.982901c72.105827 0 130.53641 56.821732 130.536411 126.879928 0 25.302856-7.605483 49.508767-21.792634 70.204456a32.030783 32.030783 0 0 0 9.360594 45.120989c15.430354 9.945631 36.272302 5.850371 46.510452-9.068076 21.353855-31.299487 32.908339-68.010567 32.908339-106.257369 0-106.03798-88.413737-191.965309-197.450032-191.965309-18.574929 0-33.566505 14.552799-33.566506 32.54269s14.991577 32.54269 33.493376 32.542691z m-7.312964 0.219389c2.193889-0.146259 4.680297-0.219389 7.312964-0.219389 18.574929 0 33.566505-14.552799 33.566506-32.542691A33.054598 33.054598 0 0 0 56.363218 593.89752c-3.802741 0-7.459223 0-10.969446 0.219389a32.908339 32.908339 0 0 0-31.665135 34.370931c1.023815 17.916762 16.819818 31.665135 35.321617 30.71445zM14.533063 389.86582a520.390529 520.390529 0 0 0 0 244.253003c4.241519 17.551114 22.231411 28.374301 40.221303 24.279041a32.54269 32.54269 0 0 0 25.083467-39.124358 456.98713 456.98713 0 0 1 0-214.489239 32.54269 32.54269 0 0 0-25.010337-39.197488 33.566505 33.566505 0 0 0-40.221303 24.279041z m41.830155-24.864078c-2.632667 0-5.119075-0.07313-7.312964-0.219389a33.200857 33.200857 0 0 0-35.321617 30.714449 32.908339 32.908339 0 0 0 31.592005 34.370932c3.583352 0.146259 7.239835 0.219389 11.042576 0.219389 18.501799 0 33.566505-14.625928 33.566506-32.542691A33.054598 33.054598 0 0 0 56.363218 365.001742z m108.743777-197.011255c14.18715 20.622559 21.792633 44.82847 21.792634 70.204456 0 69.985067-58.430584 126.806798-130.536411 126.806799-18.501799 0-33.493376 14.552799-33.493376 32.54269s14.991577 32.54269 33.493376 32.542691c109.109425 0 197.596292-85.927329 197.596292-191.965309 0-38.246803-11.627613-74.957883-32.981469-106.25737a34.151543 34.151543 0 0 0-46.510452-9.068075 32.030783 32.030783 0 0 0-9.360594 45.194118zM390.419421 1.474294a551.836275 551.836275 0 0 0-220.485869 124.905427 31.957653 31.957653 0 0 0-1.096945 46.071675 34.224672 34.224672 0 0 0 47.388008 1.023815A484.264486 484.264486 0 0 1 409.725646 63.853878c17.697373-5.119075 27.789264-23.401485 22.4508-40.586951A33.639635 33.639635 0 0 0 390.419421 1.547423z m276.283786 17.331725a130.828929 130.828929 0 0 1-118.177501 72.910252A130.828929 130.828929 0 0 1 430.421335 18.806019a33.932154 33.932154 0 0 0-44.609081-15.576614 32.177042 32.177042 0 0 0-16.088522 43.292748A197.96194 197.96194 0 0 0 548.525706 156.874782 198.035069 198.035069 0 0 0 727.32768 46.522153a32.177042 32.177042 0 0 0-16.088521-43.292748 33.932154 33.932154 0 0 0-44.609082 15.576614z m261.950376 108.963166A551.909405 551.909405 0 0 0 706.631991 1.474294a33.639635 33.639635 0 0 0-41.683896 21.792633 32.469561 32.469561 0 0 0 22.377671 40.586951c73.129642 21.426985 139.897004 59.527528 194.817365 110.864536 13.382724 12.432039 34.59032 12.066391 47.461137-0.950685a31.957653 31.957653 0 0 0-0.950685-46.071674zM1042.882083 365.001742c-72.105827 0-130.53641-56.821732-130.53641-126.879928 0-24.864078 7.386094-48.704341 21.061337-69.107512a32.030783 32.030783 0 0 0-9.799372-45.120988 34.078413 34.078413 0 0 0-46.364193 9.506853 187.504401 187.504401 0 0 0-31.957653 104.721647c0 106.03798 88.486866 191.965309 197.596291 191.965309 18.501799 0 33.493376-14.552799 33.493376-32.542691a33.054598 33.054598 0 0 0-33.493376-32.54269z m5.484723-0.146259l-5.484723 0.146259c-18.501799 0-33.566505 14.552799-33.566505 32.54269s15.064706 32.54269 33.566505 32.542691c2.998315 0 5.704112 0 8.409909-0.146259a32.908339 32.908339 0 0 0 32.030783-33.932154 33.127728 33.127728 0 0 0-34.955969-31.153227z" fill="#BFCBD9" p-id="9798"></path></svg>